<?xml version="1.0" standalone="no"?>
<!DOCTYPE svg PUBLIC "-//W3C//DTD SVG 1.1//EN"
"http://www.w3.org/Graphics/SVG/1.1/DTD/svg11.dtd">

<svg width="378" height="312" view_box="0 0 378 312"
xmlns="http://www.w3.org/2000/svg"
xmlns:link="http://www.w3.org/1999/xlink">\n\n<desc>Généré par Mocodo 2.3.5 le Wed, 02 Nov 2016 07:30:02</desc>

<rect id="frame" x="0" y="0" width="378" height="312" fill="#f7f7f7" stroke="none" stroke-width="0"/>

<!-- Association Participe -->
<line x1="64" y1="51" x2="205" y2="51" stroke="#5aae61" stroke-width="2"/>
<text x="105" y="68.0" fill="#762a83" font-family="Verdana" font-size="12">0,N</text>
<line x1="320" y1="51" x2="205" y2="51" stroke="#5aae61" stroke-width="2"/>
<text x="244" y="43.0" fill="#762a83" font-family="Verdana" font-size="12">1,N</text>
<g id="association-Participe">
	<path d="M 225 26 a 14 14 90 0 1 14 14 V 51 h -68 V 40 a 14 14 90 0 1 14 -14" fill="#a6dba0" stroke="#a6dba0" stroke-width="0"/>
	<path d="M 239 51.0 v 11 a 14 14 90 0 1 -14 14 H 185 a 14 14 90 0 1 -14 -14 V 51.0 H 68" fill="#d9f0d3" stroke="#d9f0d3" stroke-width="0"/>
	<rect x="171" y="26" width="68" height="50" fill="none" rx="14" stroke="#5aae61" stroke-width="2"/>
	<line x1="171" y1="51" x2="239" y2="51" stroke="#5aae61" stroke-width="1"/>
	<text x="178" y="43.7" fill="#000000" font-family="Verdana" font-size="12">Participe</text>
</g>

<!-- Association Positionne -->
<line x1="205" y1="152" x2="64" y2="261" stroke="#5aae61" stroke-width="2"/>
<text x="124" y="191.546051672" fill="#762a83" font-family="Verdana" font-size="12">0,N</text>
<line x1="205" y1="261" x2="64" y2="261" stroke="#5aae61" stroke-width="2"/>
<text x="150" y="278.0" fill="#762a83" font-family="Verdana" font-size="12">1,1</text>
<g id="association-Positionne">
	<path d="M 89 236 a 14 14 90 0 1 14 14 V 261 h -78 V 250 a 14 14 90 0 1 14 -14" fill="#a6dba0" stroke="#a6dba0" stroke-width="0"/>
	<path d="M 103 261.0 v 11 a 14 14 90 0 1 -14 14 H 39 a 14 14 90 0 1 -14 -14 V 261.0 H 78" fill="#d9f0d3" stroke="#d9f0d3" stroke-width="0"/>
	<rect x="25" y="236" width="78" height="50" fill="none" rx="14" stroke="#5aae61" stroke-width="2"/>
	<line x1="25" y1="261" x2="103" y2="261" stroke="#5aae61" stroke-width="1"/>
	<text x="32" y="253.7" fill="#000000" font-family="Verdana" font-size="12">Positionne</text>
</g>

<!-- Association Est composé de -->
<line x1="320" y1="51" x2="64" y2="152" stroke="#5aae61" stroke-width="2"/>
<text x="244" y="65.4205064748" fill="#762a83" font-family="Verdana" font-size="12">0,N</text>
<line x1="205" y1="152" x2="64" y2="152" stroke="#5aae61" stroke-width="2"/>
<text x="125" y="144.0" fill="#762a83" font-family="Verdana" font-size="12">1,1</text>
<g id="association-Est composé de">
	<path d="M 105 127 a 14 14 90 0 1 14 14 V 152 h -110 V 141 a 14 14 90 0 1 14 -14" fill="#a6dba0" stroke="#a6dba0" stroke-width="0"/>
	<path d="M 119 152.0 v 11 a 14 14 90 0 1 -14 14 H 23 a 14 14 90 0 1 -14 -14 V 152.0 H 110" fill="#d9f0d3" stroke="#d9f0d3" stroke-width="0"/>
	<rect x="9" y="127" width="110" height="50" fill="none" rx="14" stroke="#5aae61" stroke-width="2"/>
	<line x1="9" y1="152" x2="119" y2="152" stroke="#5aae61" stroke-width="1"/>
	<text x="16" y="144.7" fill="#000000" font-family="Verdana" font-size="12">Est composé de</text>
</g>

<!-- Entity Projet -->
<g id="entity-Projet">
	<g id="frame-Projet">
		<rect x="271" y="17" width="98" height="25" fill="#c2a5cf" stroke="#c2a5cf" stroke-width="0"/>
		<rect x="271" y="42.0" width="98" height="43" fill="#e7d4e8" stroke="#e7d4e8" stroke-width="0"/>
		<rect x="271" y="17" width="98" height="68" fill="none" stroke="#9970ab" stroke-width="2"/>
		<line x1="271" y1="42" x2="369" y2="42" stroke="#9970ab" stroke-width="1"/>
	</g>
	<text x="301" y="34.7" fill="#000000" font-family="Verdana" font-size="12">Projet</text>
	<text x="276" y="59.8" fill="#000000" font-family="Verdana" font-size="12">nom du projet</text>
	<line x1="276" y1="62" x2="363" y2="62" stroke="#000000" stroke-width="1"/>
	<text x="276" y="76.8" fill="#000000" font-family="Verdana" font-size="12">tempo</text>
</g>

<!-- Entity Note -->
<g id="entity-Note">
	<g id="frame-Note">
		<rect x="176" y="219" width="58" height="25" fill="#c2a5cf" stroke="#c2a5cf" stroke-width="0"/>
		<rect x="176" y="244.0" width="58" height="59" fill="#e7d4e8" stroke="#e7d4e8" stroke-width="0"/>
		<rect x="176" y="219" width="58" height="84" fill="none" stroke="#9970ab" stroke-width="2"/>
		<line x1="176" y1="244" x2="234" y2="244" stroke="#9970ab" stroke-width="1"/>
	</g>
	<text x="190" y="236.7" fill="#000000" font-family="Verdana" font-size="12">Note</text>
	<text x="181" y="261.8" fill="#000000" font-family="Verdana" font-size="12">idNote</text>
	<line x1="181" y1="264" x2="221" y2="264" stroke="#000000" stroke-width="1"/>
	<text x="181" y="278.8" fill="#000000" font-family="Verdana" font-size="12">Durée</text>
	<text x="181" y="295.8" fill="#000000" font-family="Verdana" font-size="12">Position</text>
</g>

<!-- Entity Utilisateur -->
<g id="entity-Utilisateur">
	<g id="frame-Utilisateur">
		<rect x="28" y="9" width="72" height="25" fill="#c2a5cf" stroke="#c2a5cf" stroke-width="0"/>
		<rect x="28" y="34.0" width="72" height="59" fill="#e7d4e8" stroke="#e7d4e8" stroke-width="0"/>
		<rect x="28" y="9" width="72" height="84" fill="none" stroke="#9970ab" stroke-width="2"/>
		<line x1="28" y1="34" x2="100" y2="34" stroke="#9970ab" stroke-width="1"/>
	</g>
	<text x="33" y="26.7" fill="#000000" font-family="Verdana" font-size="12">Utilisateur</text>
	<text x="33" y="51.8" fill="#000000" font-family="Verdana" font-size="12">login</text>
	<line x1="33" y1="54" x2="63" y2="54" stroke="#000000" stroke-width="1"/>
	<text x="33" y="68.8" fill="#000000" font-family="Verdana" font-size="12">password</text>
	<text x="33" y="85.8" fill="#000000" font-family="Verdana" font-size="12">email</text>
</g>

<!-- Entity Ligne -->
<g id="entity-Ligne">
	<g id="frame-Ligne">
		<rect x="151" y="110" width="108" height="25" fill="#c2a5cf" stroke="#c2a5cf" stroke-width="0"/>
		<rect x="151" y="135.0" width="108" height="59" fill="#e7d4e8" stroke="#e7d4e8" stroke-width="0"/>
		<rect x="151" y="110" width="108" height="84" fill="none" stroke="#9970ab" stroke-width="2"/>
		<line x1="151" y1="135" x2="259" y2="135" stroke="#9970ab" stroke-width="1"/>
	</g>
	<text x="188" y="127.7" fill="#000000" font-family="Verdana" font-size="12">Ligne</text>
	<text x="156" y="152.8" fill="#000000" font-family="Verdana" font-size="12">idCompose</text>
	<line x1="156" y1="155" x2="223" y2="155" stroke="#000000" stroke-width="1"/>
	<text x="156" y="169.8" fill="#000000" font-family="Verdana" font-size="12">Sample</text>
	<text x="156" y="186.8" fill="#000000" font-family="Verdana" font-size="12">Numéro du bloc</text>
</g>
</svg>